<svg width="1707" height="1111" viewBox="0 0 1707 1111" fill="none" xmlns="http://www.w3.org/2000/svg">
<rect width="1707" height="1111" fill="#1E1E1E"/>
<g clip-path="url(#clip0_0_1)">
<path d="M848.133 9.73334C825.6 47.2 793.067 104.533 769.467 149.067C755.733 174.8 739.067 212.533 727.333 244.267L719.733 265.333L707.467 254.8C656 210.667 587.867 170.133 525.467 146.533C517.867 143.6 511.333 141.467 511.2 141.733C510.933 141.867 509.867 150.8 508.667 161.333C505.6 187.867 504.533 257.867 506.667 283.6C508.133 302.133 513.467 338.133 515.6 343.467C516.267 345.2 516 345.6 514.533 344.933C497.2 337.333 471.2 326.8 456.533 321.333C416.267 306.267 341.333 282.267 295.067 269.6L285.333 266.933L284.133 271.733C281.467 281.733 279.733 302.133 280.667 313.2C282.4 333.6 289.733 353.467 300.133 365.6C304.533 370.933 307.333 372.4 324.933 379.333C362 394.133 396.667 412.933 412.267 426.533C415.6 429.6 418.8 432 419.2 432C420.133 432 411.467 408.267 405.333 394.267C402.533 387.867 400.8 382.667 401.467 382.667C403.6 382.667 454 401.733 475.333 410.667C560 445.733 631.6 482.4 695.867 523.733C712.533 534.4 717.867 537.333 718.667 535.867C719.333 534.933 720.8 530 721.867 524.933C727.6 499.6 755.067 434.8 778.667 391.067C804.533 343.067 843.867 273.867 852.667 260.933C854.267 258.8 855.333 260 863.067 272.933C886.533 312.267 940.4 409.2 948.933 428C962.667 457.867 981.6 506.4 988 528C989.6 533.467 991.067 538.133 991.333 538.4C991.467 538.667 1000.27 533.2 1010.8 526.267C1080.27 481.067 1158 442 1242.93 409.467C1271.07 398.8 1314.8 383.733 1315.6 384.533C1315.87 384.8 1312.4 392.4 1307.87 401.467C1296.27 424.533 1284 450.667 1284.8 450.667C1285.07 450.667 1287.87 448.4 1291.07 445.6C1308.8 429.333 1343.47 408.267 1386 388C1408.4 377.2 1411.73 374.667 1421.07 361.2C1427.87 351.2 1437.2 331.467 1442 316.8C1446.53 302.933 1452 277.733 1452 270.8V266.933L1437.07 270.933C1336.93 297.2 1240.93 326.267 1209.2 339.867C1202.4 342.8 1196.53 345.067 1196.27 344.667C1196 344.4 1196.67 340.133 1197.73 335.067C1207.47 291.6 1209.33 223.467 1202.67 160C1201.87 153.067 1200.93 146 1200.67 144.4L1200 141.467L1189.33 145.333C1125.6 168.8 1054.53 210.933 1002.93 255.867C990.8 266.4 988 268.133 988 265.333C988 259.467 960.4 191.467 947.867 166.4C932.133 134.933 875.733 34.2667 860.533 10.4L853.867 0.133301L848.133 9.73334Z" fill="white"/>
<path d="M840.267 374.933C810.267 425.2 769.733 499.733 758.667 524.667C703.467 649.2 688.267 748.933 712.8 826C717.333 840.533 730.267 866.667 738.267 878C763.2 912.933 800 940 842.533 954.8L854.933 959.067L864.533 956.133C879.6 951.2 903.333 939.467 919.333 928.8C1015.6 864.4 1034.53 742.4 973.733 578.667C963.6 551.467 951.867 523.6 943.2 506.267C926.4 472.8 861.467 358.133 855.333 350.933C855.067 350.667 848.4 361.467 840.267 374.933Z" fill="white"/>
<path d="M1.33331 374.267C1.33331 374.4 5.73331 377.867 11.2 382C48.9333 410.4 81.7333 469.067 100 541.333C107.333 570.133 115.733 592 131.6 623.067C151.467 661.867 175.2 694.267 206.533 725.333C245.867 764.267 291.6 794.667 344.8 817.2C385.333 834.267 431.867 847.067 469.6 851.467L477.067 852.267L461.467 836.533C419.467 794.133 396.267 736.4 386.533 650.667C384.4 633.067 384.267 562 386.267 543.467L387.467 531.6L382.667 525.467C374.533 515.333 349.467 492 335.333 481.333C275.467 436.667 191.733 403.733 90.8 385.333C62.9333 380.267 1.33331 372.533 1.33331 374.267Z" fill="white"/>
<path d="M1675.33 376.133C1584.27 386.267 1494 411.2 1428.93 444.267C1390.53 463.867 1362.67 483.733 1334.93 511.6C1316 530.533 1315.73 530.8 1316.53 535.733C1318.13 545.6 1320 578.4 1320 597.333C1320 649.067 1312.67 699.067 1298.67 741.333C1285.73 781.067 1268.4 810.267 1242.53 836.533L1226.93 852.267L1234.4 851.467C1281.2 846 1340.53 827.867 1386.4 804.8C1469.87 762.933 1533.87 700 1573.73 620.667C1588.4 591.467 1596.53 570.4 1603.47 544C1616.67 493.733 1632.53 455.867 1653.87 424.133C1664.13 408.667 1684.53 387.067 1696 379.467L1703.33 374.667L1694.67 374.8C1689.87 374.933 1681.2 375.6 1675.33 376.133Z" fill="white"/>
<path d="M413.867 484.267C425.733 500.933 427.333 516.667 424 583.333C419.733 664.667 428.133 720.267 452.933 777.2C493.733 871.2 558.533 922.267 647.467 930.8C663.733 932.267 687.067 931.733 702.667 929.333C716.133 927.2 732 923.733 731.867 922.8C731.867 922.4 728.4 919.2 724.133 915.733C709.2 903.733 692 879.333 682 856C662.533 810.667 655.2 739.6 663.333 674C666.133 651.2 666.133 648.533 662.267 638.933C651.333 612 621.6 582.533 577.333 554.8C543.333 533.467 482 505.467 431.467 488.133C413.467 481.867 411.867 481.6 413.867 484.267Z" fill="white"/>
<path d="M1266 490.533C1178.4 521.6 1110.13 559.067 1071.87 597.2C1058.27 610.933 1050.27 621.733 1043.87 635.067C1038.27 646.933 1038 650 1040.8 671.733C1044.27 698.933 1044.4 762.667 1040.93 786C1032.4 843.2 1013.07 885.6 982.533 913.867C977.2 918.8 973.2 923.067 973.6 923.333C975.333 925.067 1001.47 929.467 1018.27 930.933C1080.67 936 1139.6 916.4 1185.07 875.2C1225.6 838.533 1260.27 772.533 1273.87 706.4C1281.6 668.667 1282.4 645.333 1279.2 545.867C1278.53 528.667 1278.8 517.467 1279.87 511.2C1281.6 501.733 1286.53 489.2 1290.27 485.067C1291.47 483.733 1292.13 482.4 1291.87 482.133C1291.6 481.867 1280 485.6 1266 490.533Z" fill="white"/>
<path d="M112.667 719.467C84 723.867 55.4666 731.6 36.4 740.133C25.8666 744.8 11.4666 754.267 6.1333 759.867L2.1333 764L6.79997 768.8C25.3333 788.267 62.1333 809.867 99.0666 823.067C101.067 823.867 99.6 825.467 91.0666 831.467C85.3333 835.6 76.5333 842.267 71.6 846.4C62.1333 854.133 34.6666 882.267 34.6666 884.267C34.6666 884.933 37.8666 884.933 41.7333 884.4C53.2 882.667 93.6 883.467 119.333 886C132.533 887.2 143.6 888.533 143.867 888.8C144.133 889.067 140 894 134.533 899.6C118.267 916.667 98.5333 940.667 92.9333 950.267C90.4 954.533 155.333 968.4 194.933 972.133C219.6 974.4 271.867 973.067 294.4 969.467C315.067 966.267 335.733 961.6 352.933 956C359.6 953.733 365.6 952 366 952C367.467 952 339.733 984 335.6 987.2C325.467 994.8 305.467 1002.8 284 1008C277.067 1009.6 270.8 1011.47 270.267 1012C267.6 1014.4 315.733 1026.13 348.667 1031.2C382.267 1036.4 403.067 1037.87 445.333 1037.87C506.133 1037.87 556.667 1032.53 624.533 1018.67C635.6 1016.53 644.933 1015.07 645.333 1015.6C645.867 1016.27 649.333 1020.67 653.2 1025.6C669.067 1046.13 698.933 1070.13 723.867 1082.53C746.667 1094 774.267 1102.8 802 1107.6C818.8 1110.4 868.267 1110.8 886 1108.27C945.067 1099.73 993.067 1078.13 1029.87 1043.73C1035.87 1038.13 1044.67 1028.8 1049.2 1022.93C1053.87 1017.07 1058.27 1012.4 1059.2 1012.67C1064 1014.27 1094.67 1020.4 1114.67 1023.87C1168.4 1033.2 1214.27 1037.33 1265.33 1037.33C1315.73 1037.33 1355.87 1033.47 1395.33 1024.67C1414 1020.53 1438.67 1013.33 1438.67 1012C1438.67 1011.47 1435.07 1010.27 1430.67 1009.47C1411.73 1005.73 1386.4 996.4 1375.47 989.2C1370 985.467 1341.87 953.733 1343.07 952.533C1343.33 952.267 1348 953.467 1353.33 955.333C1386.67 966.667 1419.73 972 1462.93 972.933C1499.33 973.733 1517.87 972.533 1550.67 967.2C1571.33 963.733 1612.93 954 1615.2 952C1617.33 949.867 1595.87 922.667 1574.8 901.067C1568.67 894.533 1563.73 889.067 1564.13 888.8C1564.4 888.533 1575.47 887.2 1588.67 886C1614.93 883.467 1651.47 882.8 1665.87 884.4L1675.07 885.467L1669.2 878.4C1655.2 861.6 1634 842.667 1615.47 830.267C1609.6 826.4 1606.93 823.867 1608.13 823.467C1642.67 811.333 1672.4 794.533 1696.53 773.867L1707.07 764.8L1699.6 757.867C1686.53 745.733 1667.2 736.4 1638.67 728.533C1620.13 723.467 1597.33 719.2 1581.73 717.867L1571.33 717.067L1568.27 722.8C1557.6 743.467 1513.33 789.333 1476.93 817.733C1440.53 846.133 1413.87 860.133 1372.4 872.667C1332.4 884.8 1277.6 891.067 1250.53 886.4C1241.6 884.8 1241.07 884.933 1239.6 887.333C1236.67 892.8 1220.27 908.667 1208 917.867C1163.47 951.467 1113.73 971.867 1053.33 981.467C1030.4 985.067 985.867 986.4 977.067 983.6L970.8 981.6L967.333 987.467C959.2 1001.33 934.933 1012.67 900.933 1018.67C883.6 1021.6 856.267 1024.13 848.667 1023.33C845.733 1022.93 836.133 1022 827.333 1021.2C784 1017.33 743.6 1005.6 728 992.4L723.6 988.667L698.133 988.533C645.733 988 599.467 977.733 556.8 956.8C521.333 939.467 484.933 911.333 471.2 890.8L467.467 885.067L460 886.133C449.733 887.733 412.533 887.333 397.333 885.467C390.4 884.667 377.2 882.4 368 880.533C296.133 866.133 247.867 838.533 185.867 776.667C161.067 752 148 736.8 141.067 724.4C137.067 717.467 137.067 717.333 130.933 717.467C127.467 717.6 119.333 718.4 112.667 719.467Z" fill="white"/>
</g>
<defs>
<clipPath id="clip0_0_1">
<rect width="1706.67" height="1110.67" fill="white"/>
</clipPath>
</defs>
</svg>
