<svg width="36" height="36" viewBox="0 0 36 36" fill="none" xmlns="http://www.w3.org/2000/svg">
<path d="M36 18C36 27.9411 27.9411 36 18 36C8.05887 36 0 27.9411 0 18C0 8.05887 8.05887 0 18 0C27.9411 0 36 8.05887 36 18Z" fill="#00555B"/>
<path fill-rule="evenodd" clip-rule="evenodd" d="M13.0503 12.0503C15.7839 9.31658 20.2161 9.31658 22.9497 12.0503C25.6834 14.7839 25.6834 19.2161 22.9497 21.9497L18 26.8995L13.0503 21.9497C10.3166 19.2161 10.3166 14.7839 13.0503 12.0503ZM18 19C19.1046 19 20 18.1046 20 17C20 15.8954 19.1046 15 18 15C16.8954 15 16 15.8954 16 17C16 18.1046 16.8954 19 18 19Z" fill="#D9D9D9"/>
</svg>
