<svg width="56" height="56" viewBox="0 0 56 56" fill="none" xmlns="http://www.w3.org/2000/svg">
<ellipse cx="27.6653" cy="28" rx="27.6653" ry="28" fill="#00555B"/>
<path d="M21.6269 39.8421H15.7922V34.0718H21.6269V39.8421ZM17.0472 38.6009H20.372V35.313H17.0472V38.6009Z" fill="#D9D9D9"/>
<path d="M40.451 39.8421H34.6167V34.0718H40.451V39.8421ZM35.8716 38.6009H39.196V35.313H35.8716V38.6009V38.6009Z" fill="#D9D9D9"/>
<path d="M21.4976 17.501H15.6633V11.7307H21.498V17.501H21.4976ZM16.9183 16.2599H20.2431V12.9719H16.9183V16.2599Z" fill="#D9D9D9"/>
<path d="M29.0271 17.501H23.1929V11.7307H29.0275V17.501H29.0271ZM24.4478 16.2599H27.7726V12.9719H24.4478V16.2599Z" fill="#D9D9D9"/>
<path d="M21.4976 24.9483H15.6633V19.1776H21.498V24.9483H21.4976ZM16.9183 23.7071H20.2431V20.4192H16.9183V23.7071Z" fill="#D9D9D9"/>
<path d="M29.0271 24.9483H23.1929V19.1776H29.0275V24.9483H29.0271ZM24.4478 23.7071H27.7726V20.4192H24.4478V23.7071Z" fill="#D9D9D9"/>
<path d="M21.4976 32.3952H15.6633V26.6245H21.498V32.3952H21.4976ZM16.9183 31.154H20.2431V27.866H16.9183V31.154Z" fill="#D9D9D9"/>
<path d="M29.0271 32.3952H23.1929V26.6245H29.0275V32.3952H29.0271ZM24.4478 31.154H27.7726V27.866H24.4478V31.154Z" fill="#D9D9D9"/>
<path d="M40.3218 24.9483H34.4875V19.1776H40.3218V24.9483ZM35.7425 23.7071H39.0669V20.4192H35.7425V23.7071Z" fill="#D9D9D9"/>
<path d="M40.3218 32.3952H34.4875V26.6245H40.3218V32.3952ZM35.7425 31.154H39.0669V27.866H35.7425V31.154Z" fill="#D9D9D9"/>
<path d="M43.6607 45.4073V16.2599H32.3937V9H12.3145V45.4073H10V46.6485H23.3217H29.1564H45.9752V45.4073H43.6607ZM42.4057 17.501V45.4073H32.3937V17.501H42.4057ZM24.5766 45.4073V35.3129H27.9014V45.4073H24.5766ZM23.3217 34.0718V45.4073H13.5695V10.2411H31.1388V45.4073H29.1564V34.0718H23.3217Z" fill="#D9D9D9"/>
</svg>
