<svg width="38" height="38" viewBox="0 0 38 38" fill="none" xmlns="http://www.w3.org/2000/svg">
<path d="M37 19C37 28.9411 28.9411 37 19 37C9.05887 37 1 28.9411 1 19C1 9.05887 9.05887 1 19 1C28.9411 1 37 9.05887 37 19Z" fill="#00555B"/>
<path d="M9 14.7143C9 13.7676 9.99492 13.0001 11.2222 13.0001H26.7778C28.0051 13.0001 29 13.7676 29 14.7143V23.2858C29 24.2325 28.0051 25.0001 26.7778 25.0001H11.2222C9.99492 25.0001 9 24.2325 9 23.2858V14.7143Z" fill="white"/>
<path d="M9.22867 15.1268C8.9831 15.0006 8.68165 15.0972 8.55536 15.3428C8.42906 15.5884 8.52576 15.8898 8.77133 16.0161L9.22867 15.1268ZM17.7673 20.0804L17.5387 20.525L17.5387 20.525L17.7673 20.0804ZM20.2327 20.0804L20.004 19.6358L20.004 19.6358L20.2327 20.0804ZM29.2287 16.0161C29.4742 15.8898 29.5709 15.5884 29.4446 15.3428C29.3184 15.0972 29.0169 15.0006 28.7713 15.1268L29.2287 16.0161ZM36.5 19C36.5 28.665 28.665 36.5 19 36.5V37.5C29.2173 37.5 37.5 29.2173 37.5 19H36.5ZM19 36.5C9.33502 36.5 1.5 28.665 1.5 19H0.5C0.5 29.2173 8.78273 37.5 19 37.5V36.5ZM1.5 19C1.5 9.33502 9.33502 1.5 19 1.5V0.5C8.78273 0.5 0.5 8.78273 0.5 19H1.5ZM19 1.5C28.665 1.5 36.5 9.33502 36.5 19H37.5C37.5 8.78273 29.2173 0.5 19 0.5V1.5ZM11.2222 13.5001H26.7778V12.5001H11.2222V13.5001ZM28.5 14.7143V23.2858H29.5V14.7143H28.5ZM26.7778 24.5001H11.2222V25.5001H26.7778V24.5001ZM9.5 23.2858V14.7143H8.5V23.2858H9.5ZM11.2222 24.5001C10.1427 24.5001 9.5 23.8435 9.5 23.2858H8.5C8.5 24.6216 9.84719 25.5001 11.2222 25.5001V24.5001ZM28.5 23.2858C28.5 23.8435 27.8573 24.5001 26.7778 24.5001V25.5001C28.1528 25.5001 29.5 24.6216 29.5 23.2858H28.5ZM26.7778 13.5001C27.8573 13.5001 28.5 14.1566 28.5 14.7143H29.5C29.5 13.3785 28.1528 12.5001 26.7778 12.5001V13.5001ZM11.2222 12.5001C9.84718 12.5001 8.5 13.3785 8.5 14.7143H9.5C9.5 14.1566 10.1427 13.5001 11.2222 13.5001V12.5001ZM8.77133 16.0161L17.5387 20.525L17.996 19.6358L9.22867 15.1268L8.77133 16.0161ZM20.4613 20.525L29.2287 16.0161L28.7713 15.1268L20.004 19.6358L20.4613 20.525ZM17.5387 20.525C18.4286 20.9827 19.5714 20.9827 20.4613 20.525L20.004 19.6358C19.4011 19.9458 18.5989 19.9458 17.996 19.6358L17.5387 20.525Z" fill="#00555B"/>
</svg>
