<svg width="56" height="56" viewBox="0 0 56 56" fill="none" xmlns="http://www.w3.org/2000/svg">
<ellipse cx="27.6653" cy="28" rx="27.6653" ry="28" fill="#00555B"/>
<mask id="path-2-outside-1_568_4203" maskUnits="userSpaceOnUse" x="10.9023" y="11.0465" width="19" height="32" fill="black">
<rect fill="white" x="10.9023" y="11.0465" width="19" height="32"/>
<path fill-rule="evenodd" clip-rule="evenodd" d="M19.9446 25.0698C23.4979 25.0698 26.3784 22.1544 26.3784 18.5581C26.3784 14.9619 23.4979 12.0465 19.9446 12.0465C16.3913 12.0465 13.5108 14.9619 13.5108 18.5581C13.5108 22.1544 16.3913 25.0698 19.9446 25.0698ZM11.9027 38.7441L28.6305 38.7441C28.3753 32.0773 26.8185 27.6029 20.2698 27.0233C13.5274 27.7476 12.1238 32.1057 11.9027 38.7441ZM11.9023 38.7442H28.6302V41.6744H11.9023V38.7442Z"/>
</mask>
<path fill-rule="evenodd" clip-rule="evenodd" d="M19.9446 25.0698C23.4979 25.0698 26.3784 22.1544 26.3784 18.5581C26.3784 14.9619 23.4979 12.0465 19.9446 12.0465C16.3913 12.0465 13.5108 14.9619 13.5108 18.5581C13.5108 22.1544 16.3913 25.0698 19.9446 25.0698ZM11.9027 38.7441L28.6305 38.7441C28.3753 32.0773 26.8185 27.6029 20.2698 27.0233C13.5274 27.7476 12.1238 32.1057 11.9027 38.7441ZM11.9023 38.7442H28.6302V41.6744H11.9023V38.7442Z" fill="white"/>
<path d="M28.6305 38.7441L28.6305 39.3441L29.2539 39.3441L29.2301 38.7212L28.6305 38.7441ZM11.9027 38.7441L11.303 38.7242L11.2823 39.3441L11.9027 39.3441L11.9027 38.7441ZM20.2698 27.0233L20.3227 26.4256L20.2641 26.4204L20.2057 26.4267L20.2698 27.0233ZM28.6302 38.7442H29.2302V38.1442H28.6302V38.7442ZM11.9023 38.7442V38.1442H11.3023V38.7442H11.9023ZM28.6302 41.6744V42.2744H29.2302V41.6744H28.6302ZM11.9023 41.6744H11.3023V42.2744H11.9023V41.6744ZM25.7784 18.5581C25.7784 21.8299 23.1597 24.4698 19.9446 24.4698V25.6698C23.836 25.6698 26.9784 22.479 26.9784 18.5581H25.7784ZM19.9446 12.6465C23.1597 12.6465 25.7784 15.2864 25.7784 18.5581H26.9784C26.9784 14.6373 23.836 11.4465 19.9446 11.4465V12.6465ZM14.1108 18.5581C14.1108 15.2864 16.7295 12.6465 19.9446 12.6465V11.4465C16.0531 11.4465 12.9108 14.6373 12.9108 18.5581H14.1108ZM19.9446 24.4698C16.7295 24.4698 14.1108 21.8299 14.1108 18.5581H12.9108C12.9108 22.479 16.0531 25.6698 19.9446 25.6698V24.4698ZM28.6305 38.1441L11.9027 38.1441L11.9027 39.3441L28.6305 39.3441L28.6305 38.1441ZM20.2169 27.6209C23.3394 27.8973 25.1763 29.0817 26.2985 30.9143C27.4528 32.7992 27.904 35.4507 28.031 38.7671L29.2301 38.7212C29.1018 35.3708 28.6471 32.4516 27.3219 30.2877C25.9648 28.0715 23.7489 26.7288 20.3227 26.4256L20.2169 27.6209ZM12.5023 38.7641C12.6125 35.4563 13.0188 32.8448 14.1535 30.9775C15.2558 29.1636 17.1018 27.9671 20.3339 27.6198L20.2057 26.4267C16.6954 26.8038 14.4684 28.1486 13.128 30.3544C11.82 32.5069 11.4139 35.3936 11.303 38.7242L12.5023 38.7641ZM28.6302 38.1442H11.9023V39.3442H28.6302V38.1442ZM29.2302 41.6744V38.7442H28.0302V41.6744H29.2302ZM11.9023 42.2744H28.6302V41.0744H11.9023V42.2744ZM11.3023 38.7442V41.6744H12.5023V38.7442H11.3023Z" fill="#00555B" mask="url(#path-2-outside-1_568_4203)"/>
<mask id="path-4-outside-2_568_4203" maskUnits="userSpaceOnUse" x="25.0571" y="11.0465" width="19" height="32" fill="black">
<rect fill="white" x="25.0571" y="11.0465" width="19" height="32"/>
<path fill-rule="evenodd" clip-rule="evenodd" d="M34.0994 25.0698C37.6527 25.0698 40.5332 22.1544 40.5332 18.5581C40.5332 14.9619 37.6527 12.0465 34.0994 12.0465C30.5461 12.0465 27.6656 14.9619 27.6656 18.5581C27.6656 22.1544 30.5461 25.0698 34.0994 25.0698ZM26.0574 38.7441L42.7853 38.7441C42.5301 32.0773 40.9733 27.6029 34.4245 27.0233C27.6822 27.7476 26.2786 32.1057 26.0574 38.7441ZM26.0571 38.7442H42.785V41.6744H26.0571V38.7442Z"/>
</mask>
<path fill-rule="evenodd" clip-rule="evenodd" d="M34.0994 25.0698C37.6527 25.0698 40.5332 22.1544 40.5332 18.5581C40.5332 14.9619 37.6527 12.0465 34.0994 12.0465C30.5461 12.0465 27.6656 14.9619 27.6656 18.5581C27.6656 22.1544 30.5461 25.0698 34.0994 25.0698ZM26.0574 38.7441L42.7853 38.7441C42.5301 32.0773 40.9733 27.6029 34.4245 27.0233C27.6822 27.7476 26.2786 32.1057 26.0574 38.7441ZM26.0571 38.7442H42.785V41.6744H26.0571V38.7442Z" fill="white"/>
<path d="M42.7853 38.7441L42.7853 39.3441L43.4087 39.3441L43.3849 38.7212L42.7853 38.7441ZM26.0574 38.7441L25.4578 38.7242L25.4371 39.3441L26.0574 39.3441L26.0574 38.7441ZM34.4245 27.0233L34.4774 26.4256L34.4189 26.4204L34.3605 26.4267L34.4245 27.0233ZM42.785 38.7442H43.385V38.1442H42.785V38.7442ZM26.0571 38.7442V38.1442H25.4571V38.7442H26.0571ZM42.785 41.6744V42.2744H43.385V41.6744H42.785ZM26.0571 41.6744H25.4571V42.2744H26.0571V41.6744ZM39.9332 18.5581C39.9332 21.8299 37.3145 24.4698 34.0994 24.4698V25.6698C37.9908 25.6698 41.1332 22.479 41.1332 18.5581H39.9332ZM34.0994 12.6465C37.3145 12.6465 39.9332 15.2864 39.9332 18.5581H41.1332C41.1332 14.6373 37.9908 11.4465 34.0994 11.4465V12.6465ZM28.2656 18.5581C28.2656 15.2864 30.8842 12.6465 34.0994 12.6465V11.4465C30.2079 11.4465 27.0656 14.6373 27.0656 18.5581H28.2656ZM34.0994 24.4698C30.8842 24.4698 28.2656 21.8299 28.2656 18.5581H27.0656C27.0656 22.479 30.2079 25.6698 34.0994 25.6698V24.4698ZM42.7853 38.1441L26.0574 38.1441L26.0574 39.3441L42.7853 39.3441L42.7853 38.1441ZM34.3716 27.6209C37.4942 27.8973 39.331 29.0817 40.4533 30.9143C41.6076 32.7992 42.0588 35.4507 42.1858 38.7671L43.3849 38.7212C43.2566 35.3708 42.8018 32.4516 41.4767 30.2877C40.1196 28.0715 37.9036 26.7288 34.4774 26.4256L34.3716 27.6209ZM26.6571 38.7641C26.7673 35.4563 27.1736 32.8448 28.3083 30.9775C29.4106 29.1636 31.2566 27.9671 34.4886 27.6198L34.3605 26.4267C30.8502 26.8038 28.6232 28.1486 27.2828 30.3544C25.9748 32.5069 25.5687 35.3936 25.4578 38.7242L26.6571 38.7641ZM42.785 38.1442H26.0571V39.3442H42.785V38.1442ZM43.385 41.6744V38.7442H42.185V41.6744H43.385ZM26.0571 42.2744H42.785V41.0744H26.0571V42.2744ZM25.4571 38.7442V41.6744H26.6571V38.7442H25.4571Z" fill="#00555B" mask="url(#path-4-outside-2_568_4203)"/>
<mask id="path-6-outside-3_568_4203" maskUnits="userSpaceOnUse" x="18.3013" y="13.3256" width="19" height="32" fill="black">
<rect fill="white" x="18.3013" y="13.3256" width="19" height="32"/>
<path fill-rule="evenodd" clip-rule="evenodd" d="M27.3435 27.3488C30.8968 27.3488 33.7773 24.4335 33.7773 20.8372C33.7773 17.2409 30.8968 14.3256 27.3435 14.3256C23.7902 14.3256 20.9097 17.2409 20.9097 20.8372C20.9097 24.4335 23.7902 27.3488 27.3435 27.3488ZM19.3016 41.0232L36.0295 41.0232C35.7742 34.3564 34.2175 29.8819 27.6687 29.3023C20.9264 30.0267 19.5227 34.3848 19.3016 41.0232ZM19.3013 41.0232H36.0291V43.9535H19.3013V41.0232Z"/>
</mask>
<path fill-rule="evenodd" clip-rule="evenodd" d="M27.3435 27.3488C30.8968 27.3488 33.7773 24.4335 33.7773 20.8372C33.7773 17.2409 30.8968 14.3256 27.3435 14.3256C23.7902 14.3256 20.9097 17.2409 20.9097 20.8372C20.9097 24.4335 23.7902 27.3488 27.3435 27.3488ZM19.3016 41.0232L36.0295 41.0232C35.7742 34.3564 34.2175 29.8819 27.6687 29.3023C20.9264 30.0267 19.5227 34.3848 19.3016 41.0232ZM19.3013 41.0232H36.0291V43.9535H19.3013V41.0232Z" fill="white"/>
<path d="M36.0295 41.0232L36.0295 41.6232L36.6529 41.6232L36.629 41.0002L36.0295 41.0232ZM19.3016 41.0232L18.7019 41.0032L18.6813 41.6232L19.3016 41.6232L19.3016 41.0232ZM27.6687 29.3023L27.7216 28.7046L27.663 28.6995L27.6046 28.7057L27.6687 29.3023ZM36.0291 41.0232H36.6291V40.4232H36.0291V41.0232ZM19.3013 41.0232V40.4232H18.7013V41.0232H19.3013ZM36.0291 43.9535V44.5535H36.6291V43.9535H36.0291ZM19.3013 43.9535H18.7013V44.5535H19.3013V43.9535ZM33.1773 20.8372C33.1773 24.1089 30.5587 26.7488 27.3435 26.7488V27.9488C31.235 27.9488 34.3773 24.758 34.3773 20.8372H33.1773ZM27.3435 14.9256C30.5587 14.9256 33.1773 17.5655 33.1773 20.8372H34.3773C34.3773 16.9164 31.235 13.7256 27.3435 13.7256V14.9256ZM21.5097 20.8372C21.5097 17.5655 24.1284 14.9256 27.3435 14.9256V13.7256C23.4521 13.7256 20.3097 16.9164 20.3097 20.8372H21.5097ZM27.3435 26.7488C24.1284 26.7488 21.5097 24.1089 21.5097 20.8372H20.3097C20.3097 24.758 23.4521 27.9488 27.3435 27.9488V26.7488ZM36.0295 40.4232L19.3016 40.4232L19.3016 41.6232L36.0295 41.6232L36.0295 40.4232ZM27.6158 29.9C30.7384 30.1763 32.5752 31.3607 33.6975 33.1934C34.8517 35.0783 35.3029 37.7298 35.4299 41.0461L36.629 41.0002C36.5008 37.6498 36.046 34.7307 34.7208 32.5667C33.3637 30.3506 31.1478 29.0079 27.7216 28.7046L27.6158 29.9ZM19.9013 41.0432C20.0114 37.7353 20.4178 35.1238 21.5524 33.2566C22.6547 31.4426 24.5007 30.2461 27.7328 29.8989L27.6046 28.7057C24.0943 29.0829 21.8673 30.4276 20.5269 32.6334C19.2189 34.7859 18.8129 37.6726 18.7019 41.0032L19.9013 41.0432ZM36.0291 40.4232H19.3013V41.6232H36.0291V40.4232ZM36.6291 43.9535V41.0232H35.4291V43.9535H36.6291ZM19.3013 44.5535H36.0291V43.3535H19.3013V44.5535ZM18.7013 41.0232V43.9535H19.9013V41.0232H18.7013Z" fill="#00555B" mask="url(#path-6-outside-3_568_4203)"/>
</svg>
