<svg width="56" height="56" viewBox="0 0 56 56" fill="none" xmlns="http://www.w3.org/2000/svg">
<ellipse cx="27.6653" cy="28" rx="27.6653" ry="28" fill="#00555B"/>
<mask id="path-2-outside-1_573_4199" maskUnits="userSpaceOnUse" x="18" y="12" width="19" height="32" fill="black">
<rect fill="white" x="18" y="12" width="19" height="32"/>
<path fill-rule="evenodd" clip-rule="evenodd" d="M27.0423 26.0233C30.5955 26.0233 33.4761 23.1079 33.4761 19.5116C33.4761 15.9154 30.5955 13 27.0423 13C23.489 13 20.6085 15.9154 20.6085 19.5116C20.6085 23.1079 23.489 26.0233 27.0423 26.0233ZM19.0003 39.6976L35.7282 39.6976C35.473 33.0308 33.9162 28.5564 27.3674 27.9767C20.6251 28.7011 19.2215 33.0592 19.0003 39.6976ZM19 39.6977H35.7279V42.6279H19V39.6977Z"/>
</mask>
<path fill-rule="evenodd" clip-rule="evenodd" d="M27.0423 26.0233C30.5955 26.0233 33.4761 23.1079 33.4761 19.5116C33.4761 15.9154 30.5955 13 27.0423 13C23.489 13 20.6085 15.9154 20.6085 19.5116C20.6085 23.1079 23.489 26.0233 27.0423 26.0233ZM19.0003 39.6976L35.7282 39.6976C35.473 33.0308 33.9162 28.5564 27.3674 27.9767C20.6251 28.7011 19.2215 33.0592 19.0003 39.6976ZM19 39.6977H35.7279V42.6279H19V39.6977Z" fill="white"/>
<path d="M35.7282 39.6976L35.7282 40.2976L36.3516 40.2976L36.3277 39.6747L35.7282 39.6976ZM19.0003 39.6976L18.4007 39.6777L18.38 40.2976L19.0003 40.2976L19.0003 39.6976ZM27.3674 27.9767L27.4203 27.3791L27.3618 27.3739L27.3033 27.3802L27.3674 27.9767ZM35.7279 39.6977H36.3279V39.0977H35.7279V39.6977ZM19 39.6977V39.0977H18.4V39.6977H19ZM35.7279 42.6279V43.2279H36.3279V42.6279H35.7279ZM19 42.6279H18.4V43.2279H19V42.6279ZM32.8761 19.5116C32.8761 22.7834 30.2574 25.4233 27.0423 25.4233V26.6233C30.9337 26.6233 34.0761 23.4325 34.0761 19.5116H32.8761ZM27.0423 13.6C30.2574 13.6 32.8761 16.2399 32.8761 19.5116H34.0761C34.0761 15.5908 30.9337 12.4 27.0423 12.4V13.6ZM21.2085 19.5116C21.2085 16.2399 23.8271 13.6 27.0423 13.6V12.4C23.1508 12.4 20.0085 15.5908 20.0085 19.5116H21.2085ZM27.0423 25.4233C23.8271 25.4233 21.2085 22.7834 21.2085 19.5116H20.0085C20.0085 23.4325 23.1508 26.6233 27.0423 26.6233V25.4233ZM35.7282 39.0976L19.0003 39.0976L19.0003 40.2976L35.7282 40.2976L35.7282 39.0976ZM27.3145 28.5744C30.4371 28.8508 32.2739 30.0351 33.3962 31.8678C34.5504 33.7527 35.0017 36.4042 35.1286 39.7206L36.3277 39.6747C36.1995 36.3243 35.7447 33.4051 34.4196 31.2412C33.0625 29.025 30.8465 27.6823 27.4203 27.3791L27.3145 28.5744ZM19.6 39.7176C19.7102 36.4098 20.1165 33.7983 21.2512 31.931C22.3535 30.117 24.1994 28.9206 27.4315 28.5733L27.3033 27.3802C23.7931 27.7573 21.5661 29.1021 20.2257 31.3078C18.9177 33.4603 18.5116 36.3471 18.4007 39.6777L19.6 39.7176ZM35.7279 39.0977H19V40.2977H35.7279V39.0977ZM36.3279 42.6279V39.6977H35.1279V42.6279H36.3279ZM19 43.2279H35.7279V42.0279H19V43.2279ZM18.4 39.6977V42.6279H19.6V39.6977H18.4Z" fill="#00555B" mask="url(#path-2-outside-1_573_4199)"/>
</svg>
