<svg width="36" height="36" viewBox="0 0 36 36" fill="none" xmlns="http://www.w3.org/2000/svg">
<path d="M36 18C36 27.9411 27.9411 36 18 36C8.05887 36 0 27.9411 0 18C0 8.05887 8.05887 0 18 0C27.9411 0 36 8.05887 36 18Z" fill="#00555B"/>
<path d="M10 11C10 10.4477 10.4477 10 11 10H13.1529C13.6417 10 14.0589 10.3534 14.1393 10.8356L14.8786 15.2715C14.9508 15.7045 14.7321 16.134 14.3394 16.3303L12.7913 17.1044C13.9076 19.8783 16.1217 22.0924 18.8956 23.2087L19.6697 21.6606C19.866 21.2679 20.2955 21.0492 20.7285 21.1214L25.1644 21.8607C25.6466 21.9411 26 22.3583 26 22.8471V25C26 25.5523 25.5523 26 25 26H23C15.8203 26 10 20.1797 10 13V11Z" fill="#D9D9D9"/>
</svg>
