<svg width="36" height="36" viewBox="0 0 36 36" fill="none" xmlns="http://www.w3.org/2000/svg">
<path d="M36 18C36 27.9411 27.9411 36 18 36C8.05887 36 0 27.9411 0 18C0 8.05887 8.05887 0 18 0C27.9411 0 36 8.05887 36 18Z" fill="#00555B"/>
<path fill-rule="evenodd" clip-rule="evenodd" d="M12.083 17H14.0286C14.1178 15.4536 14.4123 14.0291 14.8664 12.8823C13.4175 13.7713 12.3751 15.2585 12.083 17ZM18 10C13.5817 10 10 13.5817 10 18C10 22.4183 13.5817 26 18 26C22.4183 26 26 22.4183 26 18C26 13.5817 22.4183 10 18 10ZM18 12C17.924 12 17.7679 12.0317 17.5347 12.2618C17.2972 12.4962 17.0375 12.8849 16.7978 13.4442C16.4091 14.3511 16.1249 15.5856 16.0324 17H19.9676C19.8751 15.5856 19.5909 14.3511 19.2022 13.4442C18.9625 12.8849 18.7028 12.4962 18.4653 12.2618C18.2321 12.0317 18.076 12 18 12ZM21.9714 17C21.8822 15.4536 21.5877 14.0291 21.1336 12.8823C22.5825 13.7713 23.6249 15.2585 23.917 17H21.9714ZM19.9676 19H16.0324C16.1249 20.4144 16.4091 21.6489 16.7978 22.5558C17.0375 23.1151 17.2972 23.5038 17.5347 23.7382C17.7679 23.9683 17.924 24 18 24C18.076 24 18.2321 23.9683 18.4653 23.7382C18.7028 23.5038 18.9625 23.1151 19.2022 22.5558C19.5909 21.6489 19.8751 20.4144 19.9676 19ZM21.1336 23.1177C21.5877 21.9709 21.8822 20.5464 21.9714 19H23.917C23.6249 20.7415 22.5825 22.2287 21.1336 23.1177ZM14.8664 23.1177C14.4123 21.9709 14.1178 20.5464 14.0286 19H12.083C12.3751 20.7415 13.4175 22.2287 14.8664 23.1177Z" fill="#D9D9D9"/>
</svg>
